<svg width="130" height="54" viewBox="0 0 130 54" fill="none" xmlns="http://www.w3.org/2000/svg">
<g id="cafebiz_logo_30052022 1">
<g id="Clip path group">
<mask id="mask0_773_24133" style="mask-type:luminance" maskUnits="userSpaceOnUse" x="0" y="0" width="130" height="54">
<g id="clip0_1141_42">
<path id="Vector" d="M129.987 0.229614H0.0136719V53.5935H129.987V0.229614Z" fill="white"/>
</g>
</mask>
<g mask="url(#mask0_773_24133)">
<g id="Group">
<path id="Vector_2" d="M23.1135 16.445C23.5534 15.4317 24.1426 14.4747 24.8704 13.6049C25.2189 13.1885 25.5947 12.7973 25.9946 12.4333C25.2184 11.6608 24.3343 10.9831 23.3604 10.4218C20.692 8.88403 17.5309 8.32526 14.4644 8.84931C11.3979 9.37342 8.63453 10.9447 6.68768 13.2712C4.74087 15.5977 3.74303 18.5213 3.87955 21.4987C4.0161 24.4761 5.27772 27.3048 7.43003 29.4593C9.5823 31.6138 12.4789 32.9475 15.5816 33.2126C18.6843 33.4778 21.7822 32.6563 24.2995 30.9008C24.9104 30.4749 25.477 30.0009 25.9947 29.4857C25.8537 29.3574 25.7156 29.2256 25.5805 29.0905C24.5235 28.0323 23.691 26.8042 23.1135 25.474C22.637 26.0912 22.0619 26.6405 21.4035 27.0997C19.8487 28.1839 17.9354 28.6912 16.019 28.5275C14.1027 28.3637 12.3137 27.54 10.9843 26.2093C9.65496 24.8786 8.87574 23.1315 8.79143 21.2925C8.70712 19.4536 9.3234 17.6479 10.5258 16.211C11.7282 14.774 13.435 13.8035 15.329 13.4798C17.223 13.1562 19.1754 13.5013 20.8234 14.4511C21.7233 14.9697 22.4992 15.6494 23.1135 16.445Z" fill="#D11414"/>
<path id="Vector_3" d="M27.2701 30.4987C26.6635 31.1124 25.996 31.6755 25.2737 32.1792C22.4325 34.1605 18.9362 35.0877 15.4343 34.7884C11.9325 34.4892 8.66326 32.9839 6.23411 30.5523C3.80493 28.1207 2.38102 24.928 2.22692 21.5676C2.07282 18.2072 3.19903 14.9076 5.39628 12.2817C7.59353 9.65594 10.7124 7.88248 14.1734 7.29099C17.6344 6.6995 21.2021 7.33017 24.2137 9.06577C25.3479 9.71936 26.3741 10.513 27.2701 11.4195C27.8737 11.0023 28.5157 10.6384 29.1882 10.3323C28.0815 9.14426 26.7869 8.11191 25.3395 7.2778C21.8752 5.28125 17.771 4.5558 13.7898 5.23625C9.80842 5.91666 6.2207 7.9567 3.69313 10.9772C1.16556 13.9978 -0.129965 17.7935 0.0473055 21.6591C0.224558 25.5247 1.86254 29.1973 4.65691 31.9944C7.45124 34.7916 11.212 36.5232 15.2402 36.8674C19.2686 37.2116 23.2904 36.1451 26.5587 33.866C27.524 33.1929 28.4041 32.4275 29.1883 31.5858C28.517 31.2803 27.8749 30.9166 27.2701 30.4987Z" fill="#505050"/>
<path id="Vector_4" d="M43.9918 30.3071H39.0596V28.8074C37.5232 30.0761 35.7464 30.6921 33.7368 30.6921C30.7804 30.6921 28.3725 29.6544 26.5206 27.535C24.9053 25.6869 24.0752 23.4942 24.0752 20.9897C24.0752 18.2579 24.9842 15.9478 26.8362 14.0594C28.6506 12.1746 30.8593 11.2506 33.4625 11.2506C35.63 11.2506 37.4857 11.8666 39.0634 13.1354V11.6356H43.9918V30.3071ZM34.1312 15.8708C32.6699 15.8708 31.4867 16.3695 30.5438 17.4109C29.6347 18.412 29.2027 19.6073 29.2027 20.9897C29.2027 22.4528 29.676 23.6481 30.6602 24.6088C31.6068 25.5732 32.7901 26.0719 34.2476 26.0719C36.2198 26.0719 39.2408 24.9315 39.2408 20.9659C39.2408 17.0002 36.2728 15.8708 34.1312 15.8708Z" fill="#D11414"/>
<path id="Vector_5" fill-rule="evenodd" clip-rule="evenodd" d="M79.755 23.5913H65.5483C65.751 23.9287 65.991 24.2514 66.2806 24.5447C67.2273 25.5457 68.4514 26.0444 69.9091 26.0444C71.1273 26.0444 72.177 25.6938 73.0638 24.9993L77.209 27.7782C77.1961 27.7907 77.1833 27.8031 77.1704 27.8155C75.2358 29.7003 72.7942 30.6646 69.9129 30.6646C67.0317 30.6646 64.5861 29.7003 62.6555 27.8155C61.3783 26.5981 60.5181 25.1901 60.0786 23.5913H50.8189V30.2869H45.4961V17.024C45.4961 14.0356 47.9791 11.6118 51.0406 11.6118H60.2739V16.232H51.7768C51.251 16.232 50.8227 16.65 50.8227 17.1634V19.4148H59.857C60.1687 17.3614 61.1079 15.594 62.663 14.0759C64.5977 12.1911 67.0394 11.2268 69.9207 11.2268C72.8019 11.2268 75.2474 12.1911 77.1781 14.0759C79.1088 15.9607 80.0967 18.2341 80.0967 20.9659C80.0967 21.8936 79.9802 22.7663 79.755 23.5913ZM69.9245 15.847C68.463 15.847 67.2421 16.3457 66.2955 17.3467C65.713 17.9371 65.3114 18.6338 65.0862 19.4148H74.7628C74.5408 18.6338 74.1502 17.9408 73.5903 17.3467C72.6062 16.3457 71.3854 15.847 69.9245 15.847Z" fill="#D11414"/>
<path id="Vector_6" d="M81.3662 30.2814V4.98767H86.4941V12.9556C87.993 11.8006 89.8072 11.2249 91.8956 11.2249C94.4988 11.2249 96.7075 12.149 98.5597 14.0337C100.374 15.9221 101.283 18.2323 101.283 20.964C101.283 23.4684 100.453 25.6612 98.8377 27.5093C96.9855 29.6251 94.5779 30.6665 91.6214 30.6665C89.6083 30.6665 87.8353 30.0504 86.2985 28.7817V30.2814H81.3662ZM86.4941 23.7361C87.5985 25.2762 89.1347 26.0463 91.1072 26.0463C92.5642 26.0463 93.7516 25.5476 94.6944 24.5832C95.6823 23.6188 96.1521 22.4271 96.1521 20.964C96.1521 19.5779 95.7164 18.3862 94.8109 17.3852C93.8642 16.3475 92.6807 15.8452 91.2237 15.8452C89.2512 15.8452 87.6738 16.6152 86.4903 18.1552V23.7361H86.4941Z" fill="#505050"/>
<path id="Vector_7" d="M107.2 30.2813H102.072V11.6099H107.2V30.2813Z" fill="#505050"/>
<path id="Vector_8" d="M124.789 14.6899L115.522 26.0461H125.578V30.2813H108.617V27.2012L117.768 15.845H109.406V11.6099H124.789V14.6899Z" fill="#505050"/>
<path id="Vector_9" d="M5.48303 47.1825H6.25765V42.7609H7.70555V42.1393H4.03516V42.7609H5.48303V47.1825ZM9.30011 45.0635H10.2195L11.2547 47.1825H12.109L10.9796 44.9928C11.6891 44.8375 12.0004 44.4066 12.0004 43.5731C12.0004 43.0857 11.8845 42.7538 11.6312 42.5066C11.3633 42.2452 11.0014 42.1393 10.3643 42.1393H8.52552V47.1825H9.30011V45.0635ZM9.28563 44.4631V42.7467H10.2919C10.9435 42.7467 11.233 43.0081 11.233 43.6084C11.233 44.1947 10.9579 44.4631 10.3353 44.4631H9.28563ZM15.9548 46.13L16.3168 47.1825H17.1566L15.2743 42.1393H14.5287L12.6465 47.1825H13.4862L13.8482 46.13H15.9548ZM15.7666 45.5226H14.0364L14.9051 43.0575L15.7666 45.5226ZM17.6155 47.1825H18.3684V43.4107L20.6705 47.1825H21.4234V42.1393H20.6705V45.9111L18.3684 42.1393H17.6155V47.1825ZM24.477 45.0635H25.4471V45.4519C25.4471 46.2501 25.0923 46.6386 24.3612 46.6386C23.5721 46.6386 23.2752 46.236 23.2752 45.1482V44.1877C23.2752 43.107 23.5721 42.6973 24.3539 42.6973C24.9259 42.6973 25.2661 42.9657 25.3385 43.4813L26.0552 43.4318C26.0045 42.5489 25.4036 42.0828 24.325 42.0828C23.6734 42.0828 23.2318 42.2523 22.906 42.6196C22.6092 42.9516 22.5006 43.3612 22.5006 44.1382V45.1906C22.5006 45.9111 22.5875 46.2996 22.8337 46.6244C23.1522 47.0553 23.63 47.2531 24.3757 47.2531C25.0417 47.2531 25.5122 47.0694 25.838 46.688C26.1131 46.3631 26.2145 45.9887 26.2145 45.2895V44.4772H24.477V45.0635ZM29.4239 47.1825H30.1985V42.7609H31.6463V42.1393H27.976V42.7609H29.4239V47.1825ZM32.4591 47.1825H33.2337V44.9434H35.2173V47.1825H35.9919V42.1393H35.2173V44.3218H33.2337V42.1393H32.4591V47.1825ZM37.0756 45.2754C37.0756 45.9393 37.1769 46.3278 37.4302 46.6457C37.756 47.0623 38.2266 47.2531 38.9433 47.2531C39.6021 47.2531 40.0364 47.0977 40.3767 46.7304C40.688 46.4055 40.8038 45.9958 40.8038 45.2754V44.0464C40.8038 43.3824 40.7024 42.9939 40.4491 42.6761C40.1233 42.2594 39.6528 42.0687 38.9433 42.0687C38.2773 42.0687 37.8429 42.2241 37.5026 42.5913C37.1914 42.9233 37.0756 43.3259 37.0756 44.0464V45.2754ZM40.0292 45.2047C40.0292 46.2148 39.7034 46.6386 38.9433 46.6386C38.1759 46.6386 37.8502 46.2148 37.8502 45.2047V44.117C37.8502 43.107 38.1759 42.6831 38.9433 42.6831C39.7034 42.6831 40.0292 43.107 40.0292 44.117V45.2047ZM38.9361 41.0586L39.3994 41.6237H40.1378L39.1894 40.6207H38.6827L37.7416 41.6237H38.48L38.9361 41.0586ZM41.8887 47.1825H42.6416V43.4107L44.9437 47.1825H45.6966V42.1393H44.9437V45.9111L42.6416 42.1393H41.8887V47.1825ZM48.7501 45.0635H49.7202V45.4519C49.7202 46.2501 49.3655 46.6386 48.6342 46.6386C47.8452 46.6386 47.5484 46.236 47.5484 45.1482V44.1877C47.5484 43.107 47.8452 42.6973 48.627 42.6973C49.199 42.6973 49.5392 42.9657 49.6116 43.4813L50.3283 43.4318C50.2776 42.5489 49.6768 42.0828 48.5981 42.0828C47.9465 42.0828 47.5049 42.2523 47.1791 42.6196C46.8823 42.9516 46.7738 43.3612 46.7738 44.1382V45.1906C46.7738 45.9111 46.8607 46.2996 47.1068 46.6244C47.4253 47.0553 47.9031 47.2531 48.6487 47.2531C49.3148 47.2531 49.7853 47.0694 50.1111 46.688C50.3862 46.3631 50.4876 45.9887 50.4876 45.2895V44.4772H48.7501V45.0635ZM53.697 47.1825H54.4716V42.7609H55.9195V42.1393H52.2491V42.7609H53.697V47.1825ZM56.7322 47.1825H57.5068V42.1393H56.7322V47.1825ZM58.7145 47.1825H59.4674V43.4107L61.7696 47.1825H62.5224V42.1393H61.7696V45.9111L59.4674 42.1393H58.7145V47.1825ZM64.9981 44.3289H64.4189V44.9363H64.9981V47.1825H66.699C68.0023 47.1966 68.6465 46.5468 68.6104 45.2471V44.0746C68.6465 42.775 68.0023 42.1181 66.699 42.1393H64.9981V44.3289ZM65.7729 44.3289V42.7467H66.562C67.4668 42.7255 67.8285 43.1211 67.8362 44.1382V45.1765C67.8285 46.2007 67.4668 46.5962 66.562 46.575H65.7729V44.9363H66.8586V44.3289H65.7729ZM69.7026 47.1825H70.4768V42.1393H69.7026V47.1825ZM71.6918 47.1825H74.8118V46.5609H72.4589V44.9434H74.443V44.3218H72.4589V42.7609H74.7906V42.1393H71.6918V47.1825ZM73.2557 41.0586L73.719 41.6237H74.4501L73.5092 40.6207H73.0021L72.0541 41.6237H72.7923L73.2557 41.0586ZM72.9152 48.5951H73.6322V47.7899H72.9152V48.5951ZM75.7031 47.1825H76.4561V43.4107L78.7581 47.1825H79.5111V42.1393H78.7581V45.9111L76.4561 42.1393H75.7031V47.1825ZM82.913 47.1825H83.6878V42.7609H85.1359V42.1393H81.4656V42.7609H82.913V47.1825ZM85.7994 42.1393V45.3178C85.7994 45.9887 85.8573 46.2996 86.0459 46.5821C86.3567 47.0412 86.849 47.2531 87.6168 47.2531C88.3331 47.2531 88.7823 47.0765 89.1079 46.6668C89.3538 46.3702 89.4265 46.0453 89.4265 45.3178V43.672C89.803 43.4813 89.933 43.4107 90.0778 43.3118C90.4832 43.0292 90.657 42.7467 90.657 42.3724C90.657 42.2594 90.6499 42.1887 90.6062 42.0616H89.9549C90.0347 42.2099 90.0636 42.3088 90.0636 42.4571C90.0636 42.7891 89.897 42.9939 89.4265 43.2059V42.1393H88.6517V45.3178C88.6517 45.7415 88.6156 45.9817 88.5287 46.1653C88.3621 46.4973 88.0873 46.6386 87.6168 46.6386C87.1676 46.6386 86.914 46.5185 86.7332 46.2289C86.6174 46.0311 86.5742 45.8051 86.5742 45.3178V42.1393H85.7994ZM87.9785 41.7084C87.9856 41.4895 87.9933 41.4541 88.1091 41.3129C88.3112 41.0727 88.3402 41.0233 88.3402 40.8608C88.3402 40.5218 88.0873 40.324 87.6528 40.324C87.4353 40.324 87.2905 40.3523 87.0376 40.437L87.1605 40.8397C87.3343 40.762 87.4282 40.7408 87.5299 40.7408C87.6599 40.7408 87.7326 40.7973 87.7326 40.8891C87.7326 40.9456 87.7108 41.0021 87.667 41.0657C87.4862 41.3058 87.472 41.3482 87.4643 41.6166V41.7084H87.9785ZM93.1869 47.1825H93.9617V42.7609H95.4091V42.1393H91.7388V42.7609H93.1869V47.1825ZM95.9716 45.2754C95.9716 45.9393 96.0732 46.3278 96.3268 46.6457C96.6525 47.0623 97.1229 47.2531 97.8398 47.2531C98.4982 47.2531 98.9326 47.0977 99.273 46.7304C99.5845 46.4055 99.7004 45.9958 99.7004 45.2754V44.0464C99.7004 43.3824 99.5987 42.9939 99.3451 42.6761C99.0195 42.2594 98.549 42.0687 97.8398 42.0687C97.1737 42.0687 96.7393 42.2241 96.3989 42.5913C96.0874 42.9233 95.9716 43.3259 95.9716 44.0464V45.2754ZM98.9255 45.2047C98.9255 46.2148 98.5999 46.6386 97.8398 46.6386C97.0721 46.6386 96.7464 46.2148 96.7464 45.2047V44.117C96.7464 43.107 97.0721 42.6831 97.8398 42.6831C98.5999 42.6831 98.9255 43.107 98.9255 44.117V45.2047ZM98.0567 40.9386C98.0638 40.7902 98.0638 40.769 98.1584 40.6842C98.3173 40.5218 98.3463 40.4723 98.3463 40.3523C98.3463 40.098 98.1294 39.9426 97.7671 39.9426C97.5715 39.9426 97.4344 39.9709 97.2458 40.0344L97.3546 40.3594C97.4923 40.2958 97.5715 40.2746 97.6583 40.2746C97.7671 40.2746 97.825 40.3029 97.825 40.3594C97.825 40.3947 97.8031 40.4441 97.7742 40.4794C97.6152 40.6631 97.6081 40.6913 97.6004 40.9386H98.0567ZM97.825 41.4259L98.2742 41.8073H98.9764L98.0638 41.0516H97.5792L96.6743 41.8073H97.3687L97.825 41.4259ZM100.785 47.1825H101.538V43.4107L103.84 47.1825H104.593V42.1393H103.84V45.9111L101.538 42.1393H100.785V47.1825ZM107.646 45.0635H108.616V45.4519C108.616 46.2501 108.262 46.6386 107.531 46.6386C106.742 46.6386 106.445 46.236 106.445 45.1482V44.1877C106.445 43.107 106.742 42.6973 107.524 42.6973C108.095 42.6973 108.435 42.9657 108.508 43.4813L109.224 43.4318C109.174 42.5489 108.573 42.0828 107.495 42.0828C106.843 42.0828 106.401 42.2523 106.076 42.6196C105.779 42.9516 105.67 43.3612 105.67 44.1382V45.1906C105.67 45.9111 105.757 46.2996 106.003 46.6244C106.321 47.0553 106.8 47.2531 107.545 47.2531C108.211 47.2531 108.681 47.0694 109.008 46.688C109.282 46.3631 109.384 45.9887 109.384 45.2895V44.4772H107.646V45.0635ZM111.667 47.1825H112.441V44.9434H114.424V47.1825H115.199V42.1393H114.424V44.3218H112.441V42.1393H111.667V47.1825ZM120.214 42.0616C120.294 42.2028 120.323 42.3088 120.323 42.45C120.323 42.7114 120.207 42.8809 119.881 43.0928C119.621 42.4006 119.056 42.0687 118.144 42.0687C117.485 42.0687 117.05 42.2311 116.71 42.5913C116.399 42.9233 116.283 43.3259 116.283 44.0464V45.2754C116.283 45.9393 116.384 46.3278 116.638 46.6457C116.963 47.0623 117.434 47.2531 118.151 47.2531C118.81 47.2531 119.244 47.0977 119.584 46.7304C119.895 46.4055 120.011 45.9958 120.011 45.2754V44.0464C120.011 43.8416 120.004 43.7144 119.968 43.5166C120.25 43.3542 120.352 43.2977 120.489 43.1846C120.764 42.9657 120.916 42.669 120.916 42.3582C120.916 42.2452 120.902 42.1817 120.865 42.0616H120.214ZM119.236 45.2047C119.236 46.2148 118.911 46.6386 118.151 46.6386C117.384 46.6386 117.058 46.2148 117.058 45.2047V44.117C117.058 43.114 117.384 42.6902 118.151 42.6902C118.911 42.6902 119.236 43.114 119.236 44.117V45.2047ZM117.709 48.5951H118.426V47.7899H117.709V48.5951ZM122.104 45.2895H123.031C123.653 45.2895 124.023 45.1906 124.297 44.9504C124.609 44.675 124.747 44.2865 124.747 43.7073C124.747 43.1705 124.631 42.8174 124.363 42.5419C124.081 42.2523 123.711 42.1393 123.031 42.1393H121.329V47.1825H122.104V45.2895ZM122.089 44.675V42.7467H123.031C123.689 42.7467 123.979 43.0363 123.979 43.7144C123.979 44.3784 123.689 44.675 123.031 44.675H122.089Z" fill="#525252"/>
</g>
</g>
</g>
</g>
</svg>
