<svg width="158" height="38" viewBox="0 0 158 38" fill="none" xmlns="http://www.w3.org/2000/svg">
<g id="vnEconomy">
<rect width="158" height="38" fill="#ED1D26"/>
<g id="VnEconomy">
<path d="M27.4627 5.84668V6.38803C26.727 6.50508 26.0709 6.89036 25.4943 7.54388C25.0767 8.03158 24.4554 9.17768 23.6302 10.9822L16.6661 26.1399H16.174L9.23972 10.3677C8.40462 8.46563 7.84292 7.3488 7.55462 7.01716C7.27625 6.68553 6.74437 6.47581 5.95898 6.38803V5.84668H15.6521V6.38803H15.324C14.4491 6.38803 13.8526 6.49532 13.5345 6.70991C13.3058 6.85622 13.1915 7.07081 13.1915 7.35368C13.1915 7.52925 13.2313 7.73896 13.3108 7.98281C13.3904 8.21691 13.6588 8.85579 14.1161 9.89948L18.4258 19.7754L22.4223 10.9822C22.8995 9.91898 23.1928 9.20694 23.3022 8.84604C23.4115 8.48514 23.4662 8.17789 23.4662 7.92429C23.4662 7.63167 23.3867 7.37318 23.2276 7.14884C23.0685 6.9245 22.8349 6.7538 22.5267 6.63676C22.0992 6.47094 21.5325 6.38803 20.8267 6.38803V5.84668H27.4627Z" fill="white"/>
<path d="M32.6839 12.0063V13.7767C33.3997 13.0159 34.0856 12.4648 34.7418 12.1234C35.3979 11.7722 36.1038 11.5967 36.8594 11.5967C37.764 11.5967 38.5146 11.8454 39.1111 12.3429C39.7076 12.8306 40.1053 13.4402 40.3041 14.1717C40.4632 14.7277 40.5427 15.7958 40.5427 17.3759V22.7016C40.5427 23.7551 40.6372 24.4135 40.8261 24.6768C41.0249 24.9304 41.4325 25.0914 42.0489 25.1596V25.6864H34.9953V25.1596C35.5222 25.0914 35.9 24.8768 36.1286 24.5159C36.2877 24.272 36.3672 23.6673 36.3672 22.7016V16.6151C36.3672 15.4934 36.3225 14.7862 36.233 14.4936C36.1436 14.201 35.9895 13.9767 35.7707 13.8206C35.562 13.6548 35.3283 13.5719 35.0699 13.5719C34.2149 13.5719 33.4196 14.1717 32.6839 15.3715V22.7016C32.6839 23.7258 32.7783 24.3744 32.9672 24.6476C33.166 24.9207 33.5289 25.0914 34.0558 25.1596V25.6864H27.0022V25.1596C27.5888 25.1011 28.0063 24.9158 28.2549 24.6037C28.4239 24.3891 28.5084 23.7551 28.5084 22.7016V14.9764C28.5084 13.9425 28.409 13.2988 28.2101 13.0451C28.0212 12.7915 27.6186 12.6257 27.0022 12.5477V12.0063H32.6839Z" fill="white"/>
<path d="M49.4472 6.9879V15.0642H49.8499C51.1324 15.0642 52.0619 14.6692 52.6385 13.8791C53.2151 13.089 53.583 11.9234 53.742 10.3823H54.3087V20.7703H53.742C53.6227 19.6389 53.3692 18.7122 52.9815 17.9904C52.6037 17.2686 52.1613 16.7858 51.6543 16.542C51.1473 16.2884 50.4116 16.1616 49.4472 16.1616V21.7506C49.4472 22.8431 49.492 23.5112 49.5815 23.7551C49.6809 23.9989 49.8598 24.1989 50.1183 24.3549C50.3768 24.511 50.7943 24.589 51.371 24.589H52.5789C54.4678 24.589 55.9789 24.1599 57.1122 23.3015C58.2555 22.4431 59.0757 21.1361 59.5728 19.3804H60.1246L59.2149 25.6864H41.7375V25.145H42.4086C42.9951 25.145 43.4674 25.0426 43.8253 24.8378C44.0837 24.7012 44.2826 24.4671 44.4218 24.1355C44.5311 23.9014 44.5858 23.2869 44.5858 22.292V9.24108C44.5858 8.34371 44.5609 7.79261 44.5112 7.58777C44.4118 7.24638 44.2279 6.98302 43.9595 6.7977C43.5817 6.52458 43.0647 6.38803 42.4086 6.38803H41.7375V5.84668H58.6631V11.7137H58.0965C57.8082 10.2799 57.4006 9.25083 56.8736 8.62658C56.3567 8.00232 55.621 7.54388 54.6666 7.25126C54.1099 7.07569 53.066 6.9879 51.535 6.9879H49.4472Z" fill="white"/>
<path d="M72.0712 22.1603L72.5335 22.5114C71.8773 23.7209 71.0572 24.6232 70.0729 25.2182C69.0987 25.8034 68.0598 26.096 66.9562 26.096C65.0972 26.096 63.6109 25.4084 62.4974 24.0331C61.384 22.6577 60.8272 21.0044 60.8272 19.0731C60.8272 17.2101 61.3343 15.5714 62.3483 14.1571C63.5711 12.4502 65.2562 11.5967 67.4036 11.5967C68.8451 11.5967 69.9884 11.9527 70.8335 12.6647C71.6885 13.3768 72.116 14.1717 72.116 15.0496C72.116 15.6056 71.942 16.0494 71.594 16.381C71.256 16.7127 70.8086 16.8785 70.2519 16.8785C69.6653 16.8785 69.1782 16.6883 68.7905 16.3079C68.4127 15.9275 68.1791 15.2496 68.0896 14.2742C68.0299 13.6596 67.8858 13.2305 67.6571 12.9866C67.4285 12.7428 67.16 12.6208 66.8519 12.6208C66.3747 12.6208 65.967 12.8696 65.629 13.367C65.1121 14.1181 64.8536 15.2691 64.8536 16.82C64.8536 18.1075 65.0624 19.3414 65.4799 20.5216C65.8975 21.6921 66.4691 22.5651 67.1948 23.1406C67.7416 23.56 68.3878 23.7697 69.1335 23.7697C69.6206 23.7697 70.0829 23.6575 70.5203 23.4332C70.9577 23.2088 71.4747 22.7845 72.0712 22.1603Z" fill="white"/>
<path d="M79.0073 11.5967C80.2202 11.5967 81.3485 11.9039 82.3924 12.5184C83.4363 13.1329 84.2266 14.0059 84.7635 15.1374C85.3103 16.2689 85.5837 17.5076 85.5837 18.8537C85.5837 20.7947 85.0816 22.4188 84.0775 23.7258C82.8646 25.306 81.1895 26.096 79.052 26.096C76.9543 26.096 75.3388 25.3742 74.2055 23.9306C73.0721 22.487 72.5055 20.8142 72.5055 18.9122C72.5055 16.9516 73.0821 15.2447 74.2353 13.7913C75.3985 12.3282 76.9891 11.5967 79.0073 11.5967ZM79.0669 12.6355C78.5599 12.6355 78.1225 12.8257 77.7546 13.2061C77.3967 13.5767 77.1581 14.318 77.0388 15.43C76.9295 16.5322 76.8748 18.0685 76.8748 20.0388C76.8748 21.0825 76.9444 22.0579 77.0836 22.965C77.1929 23.6575 77.4266 24.1842 77.7845 24.5451C78.1424 24.906 78.55 25.0865 79.0073 25.0865C79.4547 25.0865 79.8275 24.9646 80.1257 24.7207C80.5134 24.3891 80.7719 23.9258 80.9012 23.3308C81.1 22.4041 81.1994 20.5314 81.1994 17.7124C81.1994 16.0543 81.105 14.9179 80.9161 14.3034C80.7272 13.6792 80.4488 13.2256 80.081 12.9427C79.8225 12.7379 79.4845 12.6355 79.0669 12.6355Z" fill="white"/>
<path d="M91.5654 12.0063V13.7767C92.2812 13.0159 92.9671 12.4648 93.6233 12.1234C94.2794 11.7722 94.9853 11.5967 95.7408 11.5967C96.6455 11.5967 97.3961 11.8454 97.9926 12.3429C98.5891 12.8306 98.9868 13.4402 99.1856 14.1717C99.3447 14.7277 99.4242 15.7958 99.4242 17.3759V22.7016C99.4242 23.7551 99.5187 24.4135 99.7075 24.6768C99.9064 24.9304 100.314 25.0914 100.93 25.1596V25.6864H93.8768V25.1596C94.4037 25.0914 94.7815 24.8768 95.0101 24.5159C95.1692 24.272 95.2487 23.6673 95.2487 22.7016V16.6151C95.2487 15.4934 95.204 14.7862 95.1145 14.4936C95.025 14.201 94.8709 13.9767 94.6522 13.8206C94.4435 13.6548 94.2098 13.5719 93.9513 13.5719C93.0964 13.5719 92.301 14.1717 91.5654 15.3715V22.7016C91.5654 23.7258 91.6598 24.3744 91.8487 24.6476C92.0475 24.9207 92.4104 25.0914 92.9373 25.1596V25.6864H85.8837V25.1596C86.4703 25.1011 86.8878 24.9158 87.1364 24.6037C87.3054 24.3891 87.3899 23.7551 87.3899 22.7016V14.9764C87.3899 13.9425 87.2905 13.2988 87.0916 13.0451C86.9027 12.7915 86.5001 12.6257 85.8837 12.5477V12.0063H91.5654Z" fill="white"/>
<path d="M107.613 11.5967C108.826 11.5967 109.954 11.9039 110.998 12.5184C112.042 13.1329 112.832 14.0059 113.369 15.1374C113.916 16.2689 114.189 17.5076 114.189 18.8537C114.189 20.7947 113.687 22.4188 112.683 23.7258C111.47 25.306 109.795 26.096 107.658 26.096C105.56 26.096 103.944 25.3742 102.811 23.9306C101.678 22.487 101.111 20.8142 101.111 18.9122C101.111 16.9516 101.688 15.2447 102.841 13.7913C104.004 12.3282 105.595 11.5967 107.613 11.5967ZM107.673 12.6355C107.166 12.6355 106.728 12.8257 106.36 13.2061C106.002 13.5767 105.764 14.318 105.644 15.43C105.535 16.5322 105.48 18.0685 105.48 20.0388C105.48 21.0825 105.55 22.0579 105.689 22.965C105.799 23.6575 106.032 24.1842 106.39 24.5451C106.748 24.906 107.156 25.0865 107.613 25.0865C108.06 25.0865 108.433 24.9646 108.731 24.7207C109.119 24.3891 109.378 23.9258 109.507 23.3308C109.706 22.4041 109.805 20.5314 109.805 17.7124C109.805 16.0543 109.711 14.9179 109.522 14.3034C109.333 13.6792 109.054 13.2256 108.687 12.9427C108.428 12.7379 108.09 12.6355 107.673 12.6355Z" fill="white"/>
<path d="M120.26 12.0063V13.806C121.026 12.9866 121.732 12.416 122.378 12.0941C123.034 11.7625 123.75 11.5967 124.525 11.5967C125.42 11.5967 126.171 11.8015 126.777 12.2112C127.384 12.6208 127.851 13.2451 128.179 14.084C128.974 13.2061 129.735 12.5721 130.461 12.1819C131.196 11.7918 131.962 11.5967 132.757 11.5967C133.721 11.5967 134.487 11.8161 135.054 12.2551C135.63 12.6842 136.028 13.2354 136.247 13.9084C136.475 14.5717 136.59 15.6348 136.59 17.0979V22.7016C136.59 23.7551 136.684 24.4086 136.873 24.6622C137.072 24.9158 137.479 25.0816 138.096 25.1596V25.6864H130.893V25.1596C131.46 25.1109 131.877 24.8963 132.146 24.5159C132.325 24.2525 132.414 23.6478 132.414 22.7016V16.82C132.414 15.6007 132.364 14.8253 132.265 14.4936C132.166 14.162 132.007 13.9181 131.788 13.7621C131.579 13.5962 131.33 13.5133 131.042 13.5133C130.615 13.5133 130.182 13.6694 129.745 13.9815C129.307 14.2839 128.865 14.7423 128.418 15.3568V22.7016C128.418 23.6868 128.502 24.3062 128.671 24.5598C128.9 24.9207 129.337 25.1206 129.983 25.1596V25.6864H122.766V25.1596C123.153 25.1401 123.457 25.0475 123.675 24.8817C123.904 24.7061 124.053 24.5012 124.123 24.2671C124.202 24.0233 124.242 23.5015 124.242 22.7016V16.82C124.242 15.5812 124.192 14.8057 124.093 14.4936C123.994 14.1815 123.825 13.9376 123.586 13.7621C123.357 13.5865 123.109 13.4987 122.84 13.4987C122.443 13.4987 122.08 13.6011 121.752 13.806C121.284 14.1083 120.787 14.6253 120.26 15.3568V22.7016C120.26 23.6673 120.355 24.3062 120.544 24.6183C120.743 24.9207 121.15 25.1011 121.767 25.1596V25.6864H114.579V25.1596C115.165 25.1011 115.583 24.9158 115.831 24.6037C116 24.3891 116.085 23.7551 116.085 22.7016V14.9764C116.085 13.9425 115.986 13.2988 115.787 13.0451C115.598 12.7915 115.195 12.6257 114.579 12.5477V12.0063H120.26Z" fill="white"/>
<path d="M144.48 26.2423L139.977 16.103C139.3 14.5717 138.798 13.6304 138.47 13.2792C138.152 12.9281 137.764 12.6842 137.307 12.5477V12.0063H144.719V12.5477C144.232 12.5672 143.889 12.6599 143.69 12.8257C143.491 12.9915 143.391 13.1915 143.391 13.4256C143.391 13.7962 143.64 14.5278 144.137 15.6202L146.523 20.9752L148.149 16.8346C148.735 15.3617 149.028 14.3376 149.028 13.7621C149.028 13.4012 148.904 13.1134 148.656 12.8988C148.417 12.6842 147.989 12.5672 147.373 12.5477V12.0063H152.041V12.5477C151.583 12.5965 151.211 12.772 150.922 13.0744C150.634 13.367 150.152 14.3766 149.476 16.103L145.494 26.2423C144.49 28.7784 143.744 30.339 143.257 30.9243C142.571 31.7436 141.711 32.1533 140.677 32.1533C139.852 32.1533 139.181 31.9192 138.664 31.451C138.157 30.9925 137.904 30.4366 137.904 29.783C137.904 29.2173 138.078 28.7491 138.426 28.3785C138.784 28.0078 139.221 27.8225 139.738 27.8225C140.235 27.8225 140.633 27.9786 140.931 28.2907C141.239 28.6028 141.398 29.0856 141.408 29.7392C141.418 30.1098 141.463 30.3488 141.542 30.4561C141.622 30.5634 141.736 30.617 141.885 30.617C142.124 30.617 142.377 30.4756 142.646 30.1927C143.043 29.783 143.511 28.8467 144.048 27.3836L144.48 26.2423Z" fill="white"/>
</g>
</g>
</svg>
