<svg width="166" height="32" viewBox="0 0 166 32" fill="none" xmlns="http://www.w3.org/2000/svg">
<g id="vnexpress">
<g id="Group 24">
<path id="Vector" fill-rule="evenodd" clip-rule="evenodd" d="M86.5146 21.9719V9.81042H96.8778C97.7835 9.81042 98.4965 10.0061 98.9482 10.3984C99.3373 10.7251 99.597 11.3788 99.597 12.1644V14.9104C99.597 15.6955 99.3373 16.3488 98.9482 16.6754C98.4965 17.0682 97.7835 17.2634 96.8778 17.2634H89.299V21.9719H86.5146ZM95.5819 11.9025H89.299V15.1707H95.5819C96.0992 15.1707 96.4236 15.107 96.6189 14.9104C96.7485 14.7794 96.8778 14.5175 96.8778 14.1909V12.8829C96.8778 12.5558 96.7485 12.294 96.6189 12.1644C96.4236 11.9683 96.0992 11.9025 95.5819 11.9025Z" fill="#828282"/>
<path id="Vector_2" fill-rule="evenodd" clip-rule="evenodd" d="M101.946 21.9719V9.81042H112.245C113.217 9.81042 113.928 10.0061 114.379 10.3984C114.77 10.7251 115.03 11.3788 115.03 12.1644V15.0408C115.03 15.8902 114.77 16.4802 114.379 16.8068C113.928 17.1987 113.217 17.3948 112.245 17.3948H110.69L116.261 21.9719H112.245L107.387 17.3948H104.73V21.9719H101.946ZM111.014 11.9025H104.73V15.3027H111.014C111.531 15.3027 111.856 15.2364 112.049 15.107C112.179 14.9756 112.31 14.7137 112.31 14.3224V12.8829C112.31 12.5558 112.179 12.294 112.049 12.1644C111.856 11.9683 111.531 11.9025 111.014 11.9025Z" fill="#828282"/>
<path id="Vector_3" fill-rule="evenodd" clip-rule="evenodd" d="M118.333 21.9719V9.81042H130.701V11.9025H121.182V14.5832H126.751V16.6754H121.182V19.6831H130.831V21.9719H118.333Z" fill="#828282"/>
<path id="Vector_4" fill-rule="evenodd" clip-rule="evenodd" d="M143.989 11.9683H136.089V14.5832H143.602C144.767 14.5832 145.609 14.7794 145.998 15.1713C146.449 15.5646 146.645 16.3488 146.645 17.4605V19.0956C146.645 20.2054 146.449 20.9902 145.998 21.3835C145.609 21.7758 144.767 21.9719 143.602 21.9719H136.156C134.988 21.9719 134.214 21.7758 133.758 21.3835C133.371 20.9902 133.176 20.2054 133.176 19.0956V18.7675L135.638 18.2452V19.6831H144.121V16.9372H136.608C135.443 16.9372 134.667 16.7411 134.278 16.2835C133.823 15.8902 133.628 15.1713 133.628 14.0599V12.6873C133.628 11.5759 133.823 10.8565 134.278 10.4642C134.667 10.0061 135.443 9.81042 136.608 9.81042H143.472C144.637 9.81042 145.415 10.0061 145.804 10.3984C146.255 10.7908 146.449 11.5102 146.449 12.4901V12.753L143.989 13.3405V11.9683Z" fill="#828282"/>
<path id="Vector_5" fill-rule="evenodd" clip-rule="evenodd" d="M159.949 11.9683H152.051V14.5832H159.563C160.729 14.5832 161.506 14.7794 161.957 15.1713C162.347 15.5646 162.541 16.3488 162.541 17.4605V19.0956C162.541 20.2054 162.347 20.9902 161.957 21.3835C161.506 21.7758 160.729 21.9719 159.563 21.9719H152.116C150.95 21.9719 150.11 21.7758 149.719 21.3835C149.264 20.9902 149.073 20.2054 149.073 19.0956V18.7675L151.536 18.2452V19.6831H160.08V16.9372H152.569C151.404 16.9372 150.625 16.7411 150.174 16.2835C149.785 15.8902 149.59 15.1713 149.59 14.0599V12.6873C149.59 11.5759 149.785 10.8565 150.174 10.4642C150.625 10.0061 151.404 9.81042 152.569 9.81042H159.433C160.535 9.81042 161.31 10.0061 161.764 10.3984C162.217 10.7908 162.413 11.5102 162.413 12.4901V12.753L159.949 13.3405V11.9683Z" fill="#828282"/>
<path id="Vector_6" fill-rule="evenodd" clip-rule="evenodd" d="M68.2683 21.9719L73.9668 15.7603L68.1387 9.81042H71.8949L75.7173 13.9291L79.4065 9.81042H82.5791L77.3351 15.4331L83.8754 21.9719H80.0544L75.6527 17.2634L71.5709 21.9719H68.2683Z" fill="#828282"/>
<path id="Vector_7" fill-rule="evenodd" clip-rule="evenodd" d="M10.4524 21.9719L3.45801 9.81042H6.69609L11.553 18.637L16.2151 9.81042H18.9995L12.3947 21.9719H10.4524Z" fill="#828282"/>
<path id="Vector_8" fill-rule="evenodd" clip-rule="evenodd" d="M21.1973 21.9719V9.81042H23.0749L31.5574 17.0025C31.8818 17.2634 32.1422 17.46 32.3355 17.6567C32.5948 17.8524 32.7886 18.1137 32.9834 18.3109C32.9183 17.6567 32.8528 17.133 32.8528 16.8725V16.2173V9.81042H35.3793V21.9719H33.4376L24.564 14.4528C24.3712 14.2566 24.1759 14.1257 24.0462 13.9291C23.8515 13.7985 23.7248 13.6681 23.5945 13.4719C23.6591 13.8638 23.6591 14.1909 23.6591 14.5832C23.7248 14.9104 23.7248 15.1707 23.7248 15.4331V21.9719H21.1973Z" fill="#828282"/>
<path id="Vector_9" fill-rule="evenodd" clip-rule="evenodd" d="M65.1991 29.873C65.1991 30.6795 64.5518 31.3333 63.753 31.3333H39.6494C38.8506 31.3333 38.2031 30.6795 38.2031 29.873V2.12694C38.2031 1.32036 38.8506 0.666626 39.6494 0.666626H63.753C64.5518 0.666626 65.1991 1.32036 65.1991 2.12694V29.873Z" fill="#9F224E"/>
<path id="Vector_10" fill-rule="evenodd" clip-rule="evenodd" d="M46.8812 12.4003V12.887V13.8095H48.5661H53.6302V18.1905H48.5661H46.8812V19.2151V19.7019V20.6753V22.1357V23.5449H48.5661H61.3433V27.4391H47.9851H42.0605V4.56078H47.9851H61.3433V8.45495H48.5661H46.8812V9.96638V11.4267V12.4003ZM48.3275 9.91528H61.4831C62.2815 9.91528 62.7896 9.31216 62.7896 8.50607V4.61189C62.7896 3.8058 62.2815 3.10046 61.4831 3.10046H47.9851H42.2003C41.4015 3.10046 40.6143 3.8058 40.6143 4.61189V27.4902C40.6143 28.2963 41.4015 28.8994 42.2003 28.8994H47.9851H61.4831C62.2815 28.8994 62.7896 28.2963 62.7896 27.4902V23.596C62.7896 22.7899 62.2815 22.0846 61.4831 22.0846H48.3275V20.6753V19.6507H53.77C54.5683 19.6507 55.0764 19.0476 55.0764 18.2415V13.8605C55.0764 13.0544 54.5683 12.3491 53.77 12.3491H48.3275V11.4267V9.91528Z" fill="white"/>
</g>
</g>
</svg>
