<svg width="160" height="40" viewBox="0 0 160 40" fill="none" xmlns="http://www.w3.org/2000/svg">
<g id="vtc news 1" clip-path="url(#clip0_773_24129)">
<g id="layer1">
<path id="path893" d="M149.324 0.529458C149.199 0.528761 149.074 0.528993 148.947 0.529924C148.947 0.529924 144.638 0.704142 141.548 3.5877L142.776 0.91101H134.958L129.595 13.2688L128.529 0.91101H121.745L116.317 13.3642L115.154 0.91101H108.305H89.6971L85.2061 26.0087H104.106L105.333 19.2418H94.2841L94.8013 16.3825H104.719L105.85 10.3782H95.8352L96.2874 7.58207H107.174L107.767 4.08734L109.63 26.0723H117.124L122.132 15.6517L123.134 26.0723H131.242L138.503 10.2329C138.458 13.3968 140.884 14.5521 141.775 15.1116C142.938 15.8423 146.847 17.1449 147.783 17.399C148.72 17.6532 149.472 18.6887 148.365 19.5279C147.674 20.0517 145.055 19.9873 143.196 19.21C141.412 18.4639 139.771 17.1133 139.771 17.1133L134.925 22.6725C134.925 22.6725 138.318 26.5486 145.651 26.3898C145.651 26.3898 156.248 26.771 157.184 16.9543C157.184 16.9543 158.283 12.0938 149.237 9.93354C149.237 9.93354 146.523 9.13925 146.685 8.18617C146.846 7.2331 148.074 6.82007 149.399 7.04246C149.399 7.04246 152.241 7.23302 154.567 9.20271L159.285 3.67491C159.285 3.67491 157.156 0.566014 149.324 0.529458ZM66.3069 0.910998L62.6484 21.3593V7.62521H43.9393V26.0041H61.8173V26.0082H69.1512L71.5739 11.6491L74.2877 26.0082H84.2377L88.7282 0.910998H81.5244L79.2632 13.3642L76.8078 0.910998H66.3069ZM0.625977 7.62521V26.0041H19.3455V7.62521H0.625977ZM22.3176 7.62521V26.0041H40.9253V7.62521H22.3176ZM53.8783 10.5558C53.8823 10.5558 53.8862 10.5558 53.8902 10.5558C54.733 10.557 55.5671 10.7253 56.3433 11.0509C57.1195 11.3765 57.8222 11.8528 58.4099 12.4517L56.6395 14.1982C56.2796 13.8283 55.8477 13.5339 55.3696 13.3328C54.8915 13.1316 54.3772 13.0278 53.8575 13.0276C53.3508 13.0276 52.849 13.126 52.3809 13.3172C51.9127 13.5084 51.4873 13.7888 51.129 14.1422C50.7707 14.4956 50.4864 14.9152 50.2925 15.3769C50.0986 15.8387 49.9987 16.3337 49.9987 16.8335C49.9987 17.3334 50.0985 17.8284 50.2924 18.2902C50.4863 18.7521 50.7705 19.1717 51.1288 19.5251C51.4872 19.8786 51.9126 20.159 52.3807 20.3502C52.8489 20.5415 53.3507 20.6399 53.8575 20.6398C54.6573 20.638 55.4368 20.3911 56.0882 19.9331C56.3076 19.8691 56.8712 19.7542 57.274 20.117L58.3434 21.2557C57.1608 22.4239 55.5597 23.0806 53.8902 23.0821C53.0605 23.0822 52.2389 22.9202 51.4724 22.6055C50.7058 22.2908 50.0093 21.8294 49.4226 21.2478C48.8358 20.6662 48.3704 19.9758 48.0529 19.2159C47.7354 18.456 47.572 17.6415 47.572 16.819C47.572 15.1599 48.236 13.5687 49.4182 12.3944C50.6005 11.2202 52.2044 10.5589 53.8779 10.5558H53.8783ZM3.75324 10.7102H6.58985L10.0078 19.4593L13.4708 10.7102H16.1955L11.75 21.9493C11.3926 23.0512 10.6332 22.875 10.6332 22.875H8.66727L3.75324 10.7102ZM26.0777 10.732H37.1725V12.5035C37.1247 12.91 36.7174 13.1793 36.3256 13.1793H32.8799V22.9159H30.3858V13.1793H26.0777V10.732ZM115.986 28.6072L115.136 29.9267L116.055 30.0348L116.955 29.0701L115.986 28.6072ZM75.6273 29.6301V29.6306C75.5868 29.6303 75.5632 29.631 75.5632 29.631L75.3849 30.1434C76.4721 30.4388 75.3062 31.6196 75.3062 31.6196H75.8793C76.4921 31.1667 76.5512 30.8715 76.5512 30.8715C77.0182 29.717 75.9114 29.6331 75.6273 29.6301ZM66.916 30.1052V37.5548H68.6354V34.3657C68.6354 34.3657 68.6081 33.371 69.4883 33.4192C70.2152 33.4589 70.3126 34.0876 70.3126 34.6028V37.5548H72.0174V33.6281C72.0174 33.6281 71.7803 31.9572 70.117 31.9293C70.117 31.9293 69.2924 31.846 68.6354 32.6397V30.1052H66.916ZM95.636 30.301L94.5889 31.64H95.5869L96.1404 31.1181L96.7431 31.64H97.7812L96.7131 30.301H95.636ZM114.998 30.36L113.989 31.6005H114.939L115.551 31.0295L116.006 31.6005H117.073L116.084 30.36H114.998ZM43.9934 30.4254V37.5266H45.5869V34.6864H48.3266V37.5266H50.0314V30.4254H48.3266V33.1825H45.5869V30.4254H43.9934ZM57.7612 30.509V31.6786H59.0748V30.509H57.7612ZM63.3075 30.648V32.0138H62.6747V33.4519H63.3075V36.4688C63.3075 36.4688 63.3424 37.6661 64.7781 37.6661C65.6966 37.6661 66.2132 37.1923 66.2132 37.1923V35.9396C65.0212 36.4966 64.9482 35.9133 64.9482 35.9133V33.4519H66.2132V32.0138H64.9482V30.648H63.3075ZM78.0059 31.8598C78.0059 31.8598 78.3132 32.5709 77.6115 32.6929C77.066 32.2204 76.358 31.9583 75.6237 31.957C74.8342 31.957 74.077 32.2585 73.5187 32.795C72.9604 33.3316 72.6466 34.0593 72.6465 34.8181C72.6465 35.1939 72.7235 35.566 72.8731 35.9132C73.0228 36.2604 73.242 36.5758 73.5185 36.8416C73.795 37.1073 74.1232 37.3181 74.4844 37.4619C74.8456 37.6057 75.2327 37.6797 75.6237 37.6797C76.0147 37.6797 76.4018 37.6057 76.763 37.4619C77.1243 37.3181 77.4525 37.1073 77.7289 36.8416C78.0054 36.5758 78.2247 36.2604 78.3743 35.9132C78.5239 35.566 78.6009 35.1939 78.6009 34.8181C78.5996 34.2863 78.4441 33.7654 78.1519 33.3138C79.3393 33.3473 78.9561 31.8598 78.9561 31.8598H78.0059ZM57.0484 31.9016L56.3074 31.957C56.4726 32.4702 56.0939 32.6234 55.8457 32.6711C55.299 32.2095 54.5933 31.9542 53.862 31.9534C53.4691 31.9534 53.0801 32.0269 52.7172 32.1698C52.3543 32.3126 52.0245 32.522 51.7468 32.786C51.469 33.0499 51.2487 33.3633 51.0984 33.7081C50.948 34.053 50.8707 34.4226 50.8707 34.7959C50.8707 35.1692 50.948 35.5388 51.0984 35.8836C51.2487 36.2285 51.469 36.5419 51.7468 36.8058C52.0245 37.0698 52.3543 37.2791 52.7172 37.422C53.0802 37.5648 53.4691 37.6384 53.862 37.6384C54.2548 37.6384 54.6438 37.5648 55.0067 37.422C55.3696 37.2791 55.6994 37.0698 55.9771 36.8058C56.2549 36.5419 56.4753 36.2285 56.6256 35.8837C56.7759 35.5388 56.8533 35.1692 56.8532 34.7959C56.8527 34.2611 56.6935 33.7373 56.3938 33.2847C57.767 32.9505 57.0484 31.9016 57.0484 31.9016ZM84.6671 31.9293C83.0461 31.9294 81.7323 33.2195 81.7322 34.8113C81.7323 36.4031 83.0461 37.6937 84.6671 37.6938C85.5592 37.6937 86.4032 37.2953 86.9601 36.6109L85.8821 35.6126C85.5405 36.0431 85.1171 36.1868 84.723 36.218C83.9974 36.218 83.4093 35.5822 83.4093 34.7977C83.4094 34.0133 83.9974 33.3774 84.723 33.3774C85.0533 33.3637 85.4795 33.5348 85.8202 34.0037L86.8951 32.9372C86.3377 32.2981 85.524 31.9297 84.6671 31.9293ZM96.15 31.9362C95.3508 31.9362 94.5843 32.2369 94.0192 32.7722C93.4541 33.3075 93.1365 34.0334 93.1364 34.7904C93.1364 35.5475 93.4539 36.2736 94.019 36.809C94.5842 37.3444 95.3507 37.6451 96.15 37.6452C96.5458 37.6452 96.9377 37.5714 97.3034 37.428C97.6691 37.2845 98.0014 37.0742 98.2812 36.8091C98.5611 36.544 98.7831 36.2293 98.9346 35.883C99.0861 35.5366 99.164 35.1653 99.164 34.7904C99.1639 34.0334 98.8463 33.3073 98.2811 32.772C97.7158 32.2367 96.9493 31.9361 96.15 31.9362ZM127.362 31.9362C127.031 31.9361 126.703 32.0026 126.398 32.1317C126.092 32.2608 125.814 32.45 125.58 32.6886C125.346 32.9271 125.161 33.2103 125.034 33.522C124.907 33.8337 124.842 34.1678 124.842 34.5052C124.842 34.8426 124.907 35.1766 125.034 35.4883C125.161 35.8 125.346 36.0832 125.58 36.3217C125.814 36.5602 126.092 36.7494 126.398 36.8784C126.704 37.0075 127.031 37.0739 127.362 37.0738C128.02 37.0728 128.651 36.8097 129.121 36.3407C129.119 36.4871 129.116 36.6112 129.111 36.6809C129.072 37.2913 128.578 37.685 127.629 37.7637C126.68 37.8425 125.83 37.3109 125.83 37.3109L125.158 38.4728C125.158 38.4728 125.573 39.1423 128.044 39.1423C130.515 39.1423 130.712 36.9961 130.712 36.9961V32.0929H129.091C129.091 32.0929 129.096 32.5205 129.098 32.6452C128.63 32.1905 128.009 31.9367 127.362 31.9362H127.362ZM122.507 31.9393C122.359 31.9384 122.266 31.9575 122.266 31.9575C121.668 31.9575 121.16 32.3936 120.854 32.7333V32.027H119.191V37.5412H120.854V34.5474V34.4902C120.859 34.2728 120.931 33.4786 121.763 33.4473C122.504 33.4195 122.56 34.3803 122.56 34.3803V37.5412H124.237V33.5591C123.88 32.1283 122.95 31.9426 122.507 31.9393ZM102.474 31.9462C100.853 31.9462 99.5389 33.2368 99.5388 34.8286C99.5389 36.4204 100.853 37.7105 102.474 37.7106C103.366 37.7105 104.21 37.3121 104.767 36.6277L103.716 35.6294C103.352 36.0066 102.902 36.2764 102.53 36.2353C101.804 36.2353 101.216 35.599 101.216 34.8145C101.216 34.0302 101.804 33.3942 102.53 33.3942C102.972 33.3944 103.384 33.6349 103.627 34.0342L104.702 32.9536C104.145 32.3145 103.331 31.9465 102.474 31.9462ZM115.541 31.9748C115.151 31.9747 114.764 32.0481 114.403 32.1906C114.042 32.333 113.714 32.5419 113.438 32.8052C113.161 33.0685 112.942 33.3811 112.793 33.7252C112.643 34.0693 112.566 34.438 112.566 34.8104C112.566 35.1828 112.643 35.5516 112.793 35.8957C112.942 36.2397 113.161 36.5523 113.438 36.8156C113.714 37.079 114.042 37.2878 114.403 37.4303C114.764 37.5728 115.151 37.6461 115.541 37.6461C115.932 37.6461 116.319 37.5728 116.68 37.4303C117.041 37.2878 117.369 37.079 117.645 36.8157C117.921 36.5523 118.141 36.2397 118.29 35.8957C118.44 35.5516 118.517 35.1828 118.517 34.8104C118.517 34.438 118.44 34.0693 118.29 33.7252C118.141 33.3811 117.921 33.0685 117.645 32.8052C117.369 32.5419 117.041 32.333 116.68 32.1905C116.319 32.0481 115.932 31.9747 115.541 31.9748ZM57.6065 31.9984V37.5275H59.2359V31.9984H57.6065ZM109.82 32.0093C109.118 31.9975 108.182 32.2075 107.941 33.629C107.684 35.1453 109.838 35.4404 110.155 35.5585C110.471 35.6767 111.044 36.0906 110.313 36.2875C109.582 36.4845 108.396 35.7557 108.396 35.7557L107.645 36.7994C109.147 37.8037 110.155 37.6461 110.155 37.6461C111.776 37.4886 112.309 36.4445 112.092 35.519C111.875 34.5935 110.669 34.2591 109.937 34.0228C109.206 33.7865 109.404 33.3928 109.404 33.3928C110.016 32.9005 111.361 33.7271 111.361 33.7271L111.954 32.6443C111.301 32.1717 110.669 32.0537 109.957 32.0143C109.913 32.0118 109.867 32.0101 109.82 32.0093ZM89.1426 32.0338L87.4427 32.0343V35.6571C87.4427 35.6571 87.5118 37.6856 89.2118 37.6856C90.0532 37.6856 90.5246 37.2946 90.8566 36.9194V37.5871H92.5023V32.0338H90.8566V35.3987C90.7384 35.925 90.3763 36.1381 90.0415 36.1122C89.2804 36.1319 89.1426 35.4604 89.1426 35.4604V32.0338ZM127.831 33.3524C127.84 33.3523 127.848 33.3523 127.856 33.3524C128.162 33.3527 128.458 33.4508 128.69 33.6287C128.921 33.8067 129.073 34.0526 129.117 34.3217C129.118 34.4313 129.118 34.5277 129.119 34.6369C129.078 34.9085 128.927 35.1576 128.695 35.3381C128.463 35.5185 128.165 35.6182 127.856 35.6185C127.689 35.6185 127.523 35.5892 127.368 35.5323C127.213 35.4753 127.072 35.3918 126.954 35.2866C126.836 35.1814 126.742 35.0564 126.677 34.9189C126.613 34.7814 126.58 34.634 126.58 34.4852C126.58 34.1885 126.711 33.9037 126.945 33.6919C127.179 33.4801 127.497 33.3582 127.831 33.3524ZM96.19 33.3724C96.5439 33.3724 96.8834 33.5219 97.1336 33.7878C97.3839 34.0537 97.5246 34.4144 97.5246 34.7904C97.5247 34.9767 97.4902 35.1612 97.4232 35.3334C97.3562 35.5055 97.2579 35.6619 97.1339 35.7937C97.01 35.9255 96.8629 36.03 96.7009 36.1013C96.5389 36.1727 96.3653 36.2094 96.19 36.2094C96.0146 36.2095 95.8409 36.1729 95.6789 36.1016C95.5168 36.0303 95.3695 35.9258 95.2455 35.794C95.1215 35.6623 95.0231 35.5058 94.956 35.3336C94.8889 35.1614 94.8544 34.9768 94.8545 34.7904C94.8545 34.6041 94.8891 34.4197 94.9563 34.2476C95.0234 34.0755 95.1218 33.9191 95.2458 33.7874C95.3698 33.6558 95.517 33.5513 95.6791 33.4801C95.8411 33.4089 96.0147 33.3723 96.19 33.3724ZM53.8756 33.4042C54.2354 33.4043 54.5804 33.5533 54.8348 33.8186C55.0892 34.0838 55.2321 34.4436 55.232 34.8186C55.2321 35.1937 55.0892 35.5534 54.8348 35.8186C54.5804 36.0839 54.2354 36.2329 53.8756 36.233C53.6974 36.2331 53.5209 36.1966 53.3562 36.1255C53.1915 36.0545 53.0419 35.9503 52.9158 35.819C52.7898 35.6876 52.6898 35.5317 52.6216 35.36C52.5534 35.1884 52.5182 35.0044 52.5183 34.8186C52.5182 34.6328 52.5534 34.4488 52.6216 34.2772C52.6898 34.1056 52.7898 33.9496 52.9158 33.8183C53.0419 33.6869 53.1915 33.5827 53.3562 33.5117C53.5209 33.4406 53.6974 33.4041 53.8756 33.4042ZM75.6146 33.4042C75.6175 33.4042 75.6203 33.4042 75.6232 33.4042C75.7959 33.4042 75.9669 33.4406 76.1265 33.5113C76.286 33.5821 76.431 33.6858 76.5531 33.8165C76.6752 33.9472 76.7721 34.1023 76.8382 34.2731C76.9043 34.4439 76.9383 34.6269 76.9383 34.8118C76.9383 34.9966 76.9043 35.1797 76.8382 35.3505C76.7721 35.5212 76.6752 35.6764 76.5531 35.8071C76.431 35.9378 76.286 36.0415 76.1265 36.1123C75.9669 36.183 75.7959 36.2194 75.6232 36.2194C75.4505 36.2194 75.2795 36.183 75.12 36.1123C74.9604 36.0415 74.8154 35.9378 74.6933 35.8071C74.5712 35.6764 74.4743 35.5212 74.4082 35.3505C74.3422 35.1797 74.3082 34.9966 74.3082 34.8118C74.3081 34.4402 74.4454 34.0836 74.6901 33.8199C74.9347 33.5562 75.2669 33.4068 75.6141 33.4042H75.6146ZM115.508 33.4328C115.509 33.4328 115.51 33.4328 115.512 33.4328C115.863 33.4329 116.199 33.5791 116.447 33.8392C116.696 34.0993 116.835 34.4521 116.835 34.82C116.835 35.1879 116.696 35.5408 116.448 35.801C116.199 36.0613 115.863 36.2075 115.512 36.2076C115.338 36.2076 115.166 36.1717 115.005 36.102C114.845 36.0323 114.699 35.9301 114.576 35.8012C114.453 35.6723 114.355 35.5194 114.289 35.351C114.222 35.1826 114.188 35.0022 114.188 34.82C114.188 34.4528 114.327 34.1006 114.575 33.8405C114.822 33.5805 115.157 33.4339 115.508 33.4328ZM95.5468 38.1185V39.438H96.911V38.1185H95.5468Z" fill="#B10C2D"/>
</g>
</g>
<defs>
<clipPath id="clip0_773_24129">
<rect width="160" height="40" fill="white"/>
</clipPath>
</defs>
</svg>
